<?xml version="1.0" encoding="UTF-8" standalone="no"?>
<!-- Created with Inkscape (http://www.inkscape.org/) -->

<svg
   width="1920"
   height="1080"
   viewBox="0 0 1920 1080"
   version="1.1"
   id="svg5"
   inkscape:version="1.1.2 (b8e25be833, 2022-02-05)"
   sodipodi:docname="MainWindow.svg"
   xmlns:inkscape="http://www.inkscape.org/namespaces/inkscape"
   xmlns:sodipodi="http://sodipodi.sourceforge.net/DTD/sodipodi-0.dtd"
   xmlns="http://www.w3.org/2000/svg"
   xmlns:svg="http://www.w3.org/2000/svg">
  <sodipodi:namedview
     id="namedview7"
     pagecolor="#ffffff"
     bordercolor="#666666"
     borderopacity="1.0"
     inkscape:pageshadow="2"
     inkscape:pageopacity="0.0"
     inkscape:pagecheckerboard="0"
     inkscape:document-units="px"
     showgrid="false"
     inkscape:zoom="0.71145833"
     inkscape:cx="692.9429"
     inkscape:cy="513.73353"
     inkscape:window-width="2560"
     inkscape:window-height="1351"
     inkscape:window-x="-9"
     inkscape:window-y="-9"
     inkscape:window-maximized="1"
     inkscape:current-layer="layer1" />
  <defs
     id="defs2" />
  <g
     inkscape:label="Layer 1"
     inkscape:groupmode="layer"
     id="layer1">
    <path
       style="fill:none;stroke:#000000;stroke-width:1px;stroke-linecap:butt;stroke-linejoin:miter;stroke-opacity:1"
       d="M 104.01171,1.4055637 V 1080.8785"
       id="path1070" />
    <path
       d="m 53.240898,896.5809 q -6.989792,0 -11.437842,-4.58711 -4.44805,-4.58711 -4.44805,-11.79543 0,-7.20831 4.44805,-11.79542 4.44805,-4.58711 11.437842,-4.58711 6.989793,0 11.437843,4.58711 4.448056,4.58711 4.448056,11.79542 0,7.20832 -4.448056,11.79543 -4.44805,4.58711 -11.437843,4.58711 z m -33.889903,35.05862 v -10.26638 q 0,-4.15025 2.012213,-7.0991 2.012213,-2.94886 5.189391,-4.4779 7.095699,-3.2765 13.608915,-4.91476 6.513216,-1.63825 13.079384,-1.63825 6.566169,0 13.026432,1.69286 6.460269,1.69286 13.555964,4.86015 3.28309,1.52904 5.2953,4.4779 2.01221,2.94885 2.01221,7.0991 v 10.26638 z m 6.354357,-6.55301 h 55.071102 v -3.71337 q 0,-1.74747 -1.00611,-3.33112 -1.006106,-1.58364 -2.488789,-2.34816 -6.777981,-3.38573 -12.391002,-4.64172 -5.613016,-1.256 -11.649655,-1.256 -6.036639,0 -11.75556,1.256 -5.718921,1.25599 -12.390996,4.64172 -1.482683,0.76452 -2.435837,2.34816 -0.953153,1.58365 -0.953153,3.33112 z m 27.535546,-35.05863 q 4.130332,0 6.830934,-2.78503 2.700602,-2.78503 2.700602,-7.04449 0,-4.25946 -2.700602,-7.04449 -2.700602,-2.78503 -6.830934,-2.78503 -4.130332,0 -6.830933,2.78503 -2.700602,2.78503 -2.700602,7.04449 0,4.25946 2.700602,7.04449 2.700601,2.78503 6.830933,2.78503 z m 0,-9.82952 z m 0,44.88815 z"
       id="path1152"
       style="stroke-width:2.15097" />
    <g
       style="fill:none"
       id="g1285"
       transform="matrix(4.3129453,0,0,3.9816509,2.9082561,21.55196)">
      <path
         d="M 19.25,3 C 20.216,3 21,3.784 21,4.75 v 2 c 0,0.698 -0.408,1.3 -1,1.581 V 18.25 A 3.75,3.75 0 0 1 16.25,22 H 7.75 A 3.75,3.75 0 0 1 4,18.25 V 8.332 A 1.75,1.75 0 0 1 3,6.75 v -2 C 3,3.784 3.784,3 4.75,3 Z M 18.5,8.5 h -13 v 9.75 a 2.25,2.25 0 0 0 2.25,2.25 h 8.5 a 2.25,2.25 0 0 0 2.25,-2.25 z m -8.5,3 h 4 a 0.75,0.75 0 0 1 0.102,1.493 L 14,13 H 10 A 0.75,0.75 0 0 1 9.898,11.507 L 10,11.5 h 4 z m 9.25,-7 H 4.75 A 0.25,0.25 0 0 0 4.5,4.75 v 2 C 4.5,6.888 4.612,7 4.75,7 h 14.5 A 0.25,0.25 0 0 0 19.5,6.75 v -2 A 0.25,0.25 0 0 0 19.25,4.5 Z"
         fill="#000000"
         id="path1276" />
    </g>
    <path
       d="m 55.824181,207.09169 v -7.90155 l 21.135302,-24.03853 6.947243,7.90156 -21.135292,24.03852 z M 20.598692,183.7209 v -6.67737 H 49.95327 v 6.67737 z m 67.515529,-5.45318 -6.947243,-7.90155 2.83761,-3.2274 q 0.782777,-0.89032 2.05481,-0.89032 1.272034,0 2.054823,0.89032 l 2.837609,3.2274 q 0.782788,0.89031 0.782788,2.33707 0,1.44677 -0.782788,2.33709 z M 20.598692,165.35814 v -6.67737 h 45.988831 v 6.67737 z m 0,-18.36277 V 140.318 h 45.988831 v 6.67737 z"
       id="path1287"
       style="stroke-width:2.08705" />
    <g
       style="fill:none"
       id="g1305"
       transform="matrix(4.2322227,0,0,4.2317377,1.3647039,218.32035)">
      <path
         d="m 7.152,3.012 c 0.832,-0.648 1.92,-1.006 3,-1.006 0.647,0 1.17,0.222 1.567,0.575 0.108,0.095 0.203,0.198 0.288,0.304 0.084,-0.106 0.18,-0.209 0.287,-0.304 0.396,-0.353 0.92,-0.575 1.566,-0.575 1.082,0 2.17,0.358 3.001,1.006 0.647,0.503 1.154,1.198 1.353,2.037 0.42,0.07 0.794,0.284 1.096,0.567 0.48,0.451 0.822,1.103 1.038,1.774 0.218,0.681 0.328,1.446 0.295,2.181 -0.017,0.376 -0.072,0.76 -0.178,1.127 l 0.066,0.03 c 0.37,0.174 0.67,0.447 0.894,0.81 0.425,0.685 0.575,1.671 0.575,2.928 0,1.445 -0.552,2.426 -1.262,3.035 a 3.447,3.447 0 0 1 -1.27,0.69 5.172,5.172 0 0 1 -1.019,2.137 c -0.723,0.904 -1.846,1.668 -3.357,1.668 -1.21,0 -2.163,-0.67 -2.775,-1.31 a 5.358,5.358 0 0 1 -0.31,-0.357 5.36,5.36 0 0 1 -0.31,0.356 c -0.613,0.642 -1.566,1.311 -2.776,1.311 -1.51,0 -2.634,-0.764 -3.357,-1.668 a 5.171,5.171 0 0 1 -1.019,-2.137 3.447,3.447 0 0 1 -1.27,-0.69 c -0.71,-0.61 -1.262,-1.59 -1.262,-3.035 0,-1.257 0.15,-2.243 0.575,-2.928 A 2.096,2.096 0 0 1 3.548,10.698 4.892,4.892 0 0 1 3.371,9.571 C 3.338,8.836 3.447,8.071 3.666,7.39 3.881,6.72 4.223,6.067 4.704,5.616 A 2.122,2.122 0 0 1 5.799,5.049 C 5.998,4.209 6.505,3.515 7.152,3.012 Z M 8.073,4.195 C 7.528,4.62 7.208,5.186 7.208,5.838 A 0.75,0.75 0 0 1 6.221,6.549 C 6.083,6.503 5.939,6.514 5.73,6.71 5.499,6.927 5.263,7.32 5.094,7.848 A 4.843,4.843 0 0 0 4.869,9.504 c 0.025,0.556 0.157,1.018 0.366,1.33 A 0.752,0.752 0 0 1 5.318,11 H 6.4 A 2.85,2.85 0 0 1 9.242,13.642 2,2 0 1 1 7.735,13.652 1.35,1.35 0 0 0 6.4,12.5 H 3.8 a 0.7,0.7 0 0 1 -0.025,0 c -0.15,0.348 -0.262,0.949 -0.262,1.966 0,1.021 0.372,1.581 0.74,1.897 0.402,0.345 0.845,0.435 0.973,0.435 a 0.75,0.75 0 0 1 0.75,0.75 c 0,0.42 0.232,1.183 0.76,1.843 0.509,0.637 1.233,1.105 2.185,1.105 0.637,0 1.224,-0.358 1.69,-0.846 0.226,-0.238 0.402,-0.485 0.518,-0.685 a 1.8,1.8 0 0 0 0.116,-0.233 L 11.25,18.718 V 9.25 h -0.895 a 2,2 0 1 1 0,-1.5 H 11.25 V 5.212 L 11.248,5.155 A 3.053,3.053 0 0 0 11.068,4.251 C 10.978,4.013 10.861,3.825 10.722,3.701 10.599,3.591 10.43,3.506 10.152,3.506 9.387,3.506 8.627,3.764 8.073,4.196 Z M 12.763,17 v 1.718 l 0.005,0.014 c 0.02,0.053 0.058,0.132 0.116,0.233 0.116,0.2 0.292,0.447 0.518,0.685 0.466,0.488 1.053,0.846 1.69,0.846 0.953,0 1.676,-0.468 2.185,-1.105 0.528,-0.66 0.76,-1.424 0.76,-1.843 a 0.75,0.75 0 0 1 0.75,-0.75 c 0.128,0 0.57,-0.09 0.974,-0.435 0.367,-0.316 0.739,-0.876 0.739,-1.897 0,-1.208 -0.158,-1.83 -0.349,-2.137 a 0.6,0.6 0 0 0 -0.26,-0.245 C 19.789,12.036 19.638,12 19.403,12 a 0.75,0.75 0 0 1 -0.625,-1.166 c 0.209,-0.313 0.341,-0.774 0.366,-1.33 A 4.844,4.844 0 0 0 18.919,7.848 C 18.749,7.32 18.515,6.928 18.283,6.71 18.075,6.514 17.93,6.503 17.793,6.549 A 0.75,0.75 0 0 1 16.805,5.838 c 0,-0.652 -0.32,-1.218 -0.865,-1.643 -0.554,-0.431 -1.313,-0.69 -2.08,-0.69 -0.277,0 -0.446,0.087 -0.569,0.196 -0.139,0.124 -0.255,0.312 -0.345,0.55 a 3.053,3.053 0 0 0 -0.18,0.904 2.056,2.056 0 0 0 -0.003,0.057 V 15.5 H 13.4 a 1.35,1.35 0 0 0 1.35,-1.35 v -1.795 a 2,2 0 1 1 1.5,0 V 14.15 A 2.85,2.85 0 0 1 13.4,17 Z M 8.5,8 a 0.5,0.5 0 1 0 0,1 0.5,0.5 0 0 0 0,-1 z M 8,15.5 a 0.5,0.5 0 1 0 1,0 0.5,0.5 0 0 0 -1,0 z m 7,-5 a 0.5,0.5 0 1 0 1,0 0.5,0.5 0 0 0 -1,0 z"
         fill="#000000"
         id="path1296" />
    </g>
    <g
       style="fill:none"
       id="g1316"
       transform="matrix(4.2025139,0,0,4.4785927,2.2456654,327.67117)">
      <path
         d="M 17.75,3 A 3.25,3.25 0 0 1 21,6.25 v 11.5 A 3.25,3.25 0 0 1 17.75,21 H 6.25 A 3.25,3.25 0 0 1 3,17.75 V 6.25 A 3.25,3.25 0 0 1 6.25,3 Z m 1.75,5.5 h -15 v 9.25 c 0,0.966 0.784,1.75 1.75,1.75 h 11.5 a 1.75,1.75 0 0 0 1.75,-1.75 z m -11.75,6 a 1.25,1.25 0 1 1 0,2.5 1.25,1.25 0 0 1 0,-2.5 z m 4.25,0 a 1.25,1.25 0 1 1 0,2.5 1.25,1.25 0 0 1 0,-2.5 z m -4.25,-4 a 1.25,1.25 0 1 1 0,2.5 1.25,1.25 0 0 1 0,-2.5 z m 4.25,0 a 1.25,1.25 0 1 1 0,2.5 1.25,1.25 0 0 1 0,-2.5 z m 4.25,0 a 1.25,1.25 0 1 1 0,2.5 1.25,1.25 0 0 1 0,-2.5 z m 1.5,-6 H 6.25 A 1.75,1.75 0 0 0 4.5,6.25 V 7 h 15 V 6.25 A 1.75,1.75 0 0 0 17.75,4.5 Z"
         fill="#000000"
         id="path1307" />
    </g>
    <g
       style="fill:none"
       id="g1327"
       transform="matrix(4.2379014,0,0,4.0072186,3.3054838,962.19716)">
      <path
         d="m 12.012,2.25 c 0.734,0.008 1.465,0.093 2.182,0.253 a 0.75,0.75 0 0 1 0.582,0.649 l 0.17,1.527 a 1.384,1.384 0 0 0 1.927,1.116 L 18.274,5.18 a 0.75,0.75 0 0 1 0.85,0.174 9.792,9.792 0 0 1 2.204,3.792 0.75,0.75 0 0 1 -0.271,0.825 l -1.242,0.916 a 1.381,1.381 0 0 0 0,2.226 l 1.243,0.915 a 0.75,0.75 0 0 1 0.272,0.826 9.797,9.797 0 0 1 -2.204,3.792 0.75,0.75 0 0 1 -0.848,0.175 l -1.407,-0.617 a 1.38,1.38 0 0 0 -1.926,1.114 l -0.169,1.526 a 0.75,0.75 0 0 1 -0.572,0.647 9.518,9.518 0 0 1 -4.406,0 0.75,0.75 0 0 1 -0.572,-0.647 L 9.058,19.32 A 1.382,1.382 0 0 0 7.132,18.21 L 5.726,18.826 A 0.75,0.75 0 0 1 4.877,18.651 9.798,9.798 0 0 1 2.673,14.855 0.75,0.75 0 0 1 2.945,14.029 l 1.243,-0.916 a 1.38,1.38 0 0 0 0,-2.226 L 2.945,9.973 A 0.75,0.75 0 0 1 2.674,9.147 9.793,9.793 0 0 1 4.878,5.355 0.75,0.75 0 0 1 5.728,5.181 l 1.4,0.615 a 1.387,1.387 0 0 0 1.93,-1.118 l 0.17,-1.526 a 0.75,0.75 0 0 1 0.583,-0.65 c 0.717,-0.159 1.45,-0.243 2.201,-0.252 z m 0,1.5 A 9.135,9.135 0 0 0 10.658,3.867 L 10.549,4.844 A 2.886,2.886 0 0 1 6.525,7.17 L 5.627,6.776 A 8.293,8.293 0 0 0 4.279,9.093 L 5.077,9.68 a 2.881,2.881 0 0 1 0,4.643 l -0.799,0.588 c 0.32,0.842 0.776,1.626 1.348,2.322 l 0.905,-0.397 a 2.882,2.882 0 0 1 4.017,2.318 l 0.11,0.984 c 0.889,0.15 1.798,0.15 2.687,0 l 0.11,-0.984 a 2.881,2.881 0 0 1 4.018,-2.322 l 0.905,0.396 a 8.296,8.296 0 0 0 1.347,-2.318 l -0.798,-0.588 a 2.881,2.881 0 0 1 0,-4.643 L 19.723,9.092 A 8.293,8.293 0 0 0 18.375,6.775 L 17.479,7.168 A 2.884,2.884 0 0 1 13.456,4.844 L 13.346,3.868 A 8.988,8.988 0 0 0 12.013,3.751 Z M 12,8.25 a 3.75,3.75 0 1 1 0,7.5 3.75,3.75 0 0 1 0,-7.5 z m 0,1.5 a 2.25,2.25 0 1 0 0,4.5 2.25,2.25 0 0 0 0,-4.5 z"
         fill="#000000"
         id="path1318" />
    </g>
    <path
       style="fill:none;stroke:#000000;stroke-width:0.928223px;stroke-linecap:butt;stroke-linejoin:miter;stroke-opacity:1"
       d="M 1919.1893,59.633017 H 353.82256"
       id="path1442" />
    <path
       style="fill:none;stroke:#000000;stroke-width:1px;stroke-linecap:butt;stroke-linejoin:miter;stroke-opacity:1"
       d="M 353.82256,59.633017 V 0 1080.3515"
       id="path1557" />
    <text
       xml:space="preserve"
       style="font-style:normal;font-weight:normal;font-size:44.4131px;line-height:1.25;font-family:sans-serif;fill:#000000;fill-opacity:1;stroke:none;stroke-width:1.11033"
       x="152.75867"
       y="49.443958"
       id="text2771"
       transform="scale(0.96192202,1.0395853)"><tspan
         sodipodi:role="line"
         id="tspan2769"
         x="152.75867"
         y="49.443958"
         style="stroke-width:1.11033">Catalog</tspan></text>
    <rect
       style="opacity:0.98;fill:#ffffff;stroke-width:1.00157"
       id="rect3469"
       width="104.35778"
       height="49.69418"
       x="149.08255"
       y="214.67886" />
    <rect
       style="opacity:0.98;fill:#ffffff;stroke-width:1.00157"
       id="rect3471"
       width="136.16205"
       height="75.535156"
       x="149.08255"
       y="214.67886" />
    <rect
       style="opacity:0.98;fill:#ffffff;stroke-width:1.00157"
       id="rect3575"
       width="204.74002"
       height="90.443413"
       x="494.95404"
       y="339.9082" />
    <rect
       style="opacity:0.98;fill:#48bbff;fill-opacity:1;stroke-width:1.21546"
       id="rect3653"
       width="195.79507"
       height="68.57798"
       x="125.22934"
       y="144.11313" />
    <text
       xml:space="preserve"
       style="font-style:normal;font-weight:normal;font-size:33.6432px;line-height:1.25;font-family:sans-serif;fill:#000000;fill-opacity:1;stroke:none;stroke-width:0.84108"
       x="189.56604"
       y="136.98775"
       id="text6553"
       transform="scale(0.71217656,1.4041462)"><tspan
         sodipodi:role="line"
         id="tspan6551"
         x="189.56604"
         y="136.98775"
         style="stroke-width:0.84108">open collection</tspan></text>
    <rect
       style="opacity:0.98;fill:#48bbff;fill-opacity:1;stroke-width:1.21546"
       id="rect3653-1"
       width="195.79507"
       height="68.57798"
       x="124.73239"
       y="310.58862" />
    <text
       xml:space="preserve"
       style="font-style:normal;font-weight:normal;font-size:36.8641px;line-height:1.25;font-family:sans-serif;fill:#000000;fill-opacity:1;stroke:none;stroke-width:0.921603"
       x="175.85614"
       y="273.85495"
       id="text6553-6"
       transform="scale(0.76363911,1.3095191)"><tspan
         sodipodi:role="line"
         id="tspan6551-3"
         x="175.85614"
         y="273.85495"
         style="stroke-width:0.921603">open library</tspan></text>
    <path
       style="fill:none;stroke:#000000;stroke-width:1px;stroke-linecap:butt;stroke-linejoin:miter;stroke-opacity:1"
       d="M 632.10998,-0.99388362 V 59.633017"
       id="path9234" />
    <text
       xml:space="preserve"
       style="font-style:normal;font-weight:normal;font-size:61.5208px;line-height:1.25;font-family:sans-serif;fill:#000000;fill-opacity:1;stroke:none;stroke-width:1.53802"
       x="392.78244"
       y="54.749302"
       id="text10858"
       transform="scale(1.0855272,0.92121136)"><tspan
         sodipodi:role="line"
         id="tspan10856"
         x="392.78244"
         y="54.749302"
         style="stroke-width:1.53802">Tab</tspan></text>
  </g>
</svg>
